# xmcd CD database file
# Copyright (C) 1993-1998 Ti Kan
# 
# Track frame offsets:
#     182
#     13882
#     29110
#     44710
#     59402
#     75497
#     93412
#     108237
#     122412
#     139357
#     158502
#     173367
# 
# Disc length: 2576 seconds
# 
# Revision: 1
# Processed by: cddbd v1.4b41PL1 Copyright (c) Steve Scherf et al.
# Submitted via: DiscPlay 4.0.4
# 
DISCID=980a0e0c
DTITLE=ZORICA BRUNCLIK - Kada bi me pitali
DYEAR=1900
DGENRE=
TTITLE0=Kada bi me pitali
TTITLE1=Boze, Boze
TTITLE2=Stose mala uobrazi
TTITLE3=Tamo gde si ti
TTITLE4=Zato je
TTITLE5=Ovo je noc
TTITLE6=Ej, Sokole
TTITLE7=Ne skrivaj se sunce
TTITLE8=Niko nije rodjen da bude sam
TTITLE9=Tako je kod Srba
TTITLE10=Hocu da budem lepa za tebe
TTITLE11=Kako da zivim bez tebe
EXTD=
EXTT0=
EXTT1=
EXTT2=
EXTT3=
EXTT4=
EXTT5=
EXTT6=
EXTT7=
EXTT8=
EXTT9=
EXTT10=
EXTT11=
PLAYORDER=
